<svg xmlns="http://www.w3.org/2000/svg" width="100%" viewBox="0 0 21.52 19.2"><path d="M1.32,19.6A.9.9,0,0,1,.48,19a.92.92,0,0,1,.17-1,9.81,9.81,0,0,0,1.94-3.26A8.11,8.11,0,0,1,.4,9.36c0-4.94,4.83-9,10.76-9s10.76,4,10.76,9-4.83,9-10.76,9A12.49,12.49,0,0,1,7,17.61,9.52,9.52,0,0,1,1.32,19.6Zm.2-.73h0ZM11.16,1.6C5.89,1.6,1.6,5.08,1.6,9.36a6.82,6.82,0,0,0,2.09,4.83l.24.24-.08.32a10.36,10.36,0,0,1-1.91,3.62,8.57,8.57,0,0,0,4.58-1.9l.27-.22.32.12a11.14,11.14,0,0,0,4.05.74c5.27,0,9.56-3.48,9.56-7.75S16.43,1.6,11.16,1.6Z" transform="translate(-0.4 -0.4)" fill="#464643"></path></svg>