<svg xmlns="http://www.w3.org/2000/svg" viewBox="0 0 1999 156.23"><path d="M0,0,6.37.07C8.09.09,8-.18,8,1.64V80.92a3.85,3.85,0,0,0,1-.56c3.38-4.3,6.73-8.63,10.11-12.94s7-8.86,10.49-13.31c3.19-4,6.32-8.14,9.51-12.2,3.77-4.8,7.59-9.57,11.36-14.37s7.31-9.41,11-14.1Q66.43,7,71.48.61A1.23,1.23,0,0,1,72.22.1c1.19,0,2.39,0,3.84,0L73,4.13q-5.43,7.11-10.87,14.21C58,23.71,53.82,29.05,49.69,34.41c-3.08,4-6.12,8-9.19,12.05-3.44,4.48-6.91,8.94-10.35,13.42-3.08,4-6.13,8-9.2,12q-2,2.6-4,5.16A1.12,1.12,0,0,0,17,78.8c3.15,3.37,6.26,6.78,9.37,10.19,2.75,3,5.49,6.05,8.24,9.07l10.44,11.49q4,4.45,8.08,8.92l8.31,9.15,8.23,9.08c2.77,3.05,5.55,6.09,8.31,9.15,2.59,2.87,5.16,5.76,7.83,8.74-.38,0-.67.06-1,.06-2.84,0-5.68-.11-8.5,0a3.9,3.9,0,0,1-3.42-1.63q-2.24-2.59-4.52-5.15-4.62-5.16-9.25-10.29c-1.38-1.54-2.79-3.08-4.18-4.62q-4.62-5.14-9.25-10.28c-1.43-1.6-2.89-3.18-4.33-4.77-3.24-3.58-6.46-7.17-9.7-10.74-1.71-1.87-3.45-3.71-5.16-5.59C23.25,98,20,94.37,16.69,90.75q-2.39-2.62-4.79-5.22c-.9-1-1.8-2-2.74-2.94A7.46,7.46,0,0,0,8,81.81v71.37c0,1.47,0,1.49-1.51,1.47-2.16,0-4.31-.08-6.47-.12Z"></path><path d="M242.68,156.23c-.27-.16-.53-.44-.81-.47a46.78,46.78,0,0,1-16.12-4.25,47.6,47.6,0,0,1-12-8.07A58.35,58.35,0,0,1,199.94,124a71,71,0,0,1-4.9-15.42,59.25,59.25,0,0,1-1.11-16,66.63,66.63,0,0,1,12.82-34.5,56.16,56.16,0,0,1,8.88-9.42,50.85,50.85,0,0,1,11.43-7.29,44.68,44.68,0,0,1,13.52-3.92,60.5,60.5,0,0,1,6.83-.58,43.1,43.1,0,0,1,11.06,1.5A46.94,46.94,0,0,1,275.59,47a41.85,41.85,0,0,1,11,13.07A42.33,42.33,0,0,1,291,74c.08.55-.09.9-.73.84-.28,0-.57,0-.85,0q-40.53,0-81.06,0a1.55,1.55,0,0,0-1.82,1.33,55.59,55.59,0,0,0-2.42,13c-.23,5-.56,10.1-.35,15.12A64.35,64.35,0,0,0,209,127.6a47.31,47.31,0,0,0,6.82,11.34,37.48,37.48,0,0,0,15.56,11.25A45.51,45.51,0,0,0,243.69,153a43.21,43.21,0,0,0,18.64-2.15,50,50,0,0,0,15.7-9.07c2.15-1.82,4.22-3.73,6.28-5.66.83-.77,1.54-1.68,2.51-2.76,0,1.67,0,3,0,4.33a1.42,1.42,0,0,1-.42.8c-5.16,5.36-10.81,10.09-17.57,13.32a38.65,38.65,0,0,1-12.09,3.56c-1.39.16-2.8.27-4.19.45-.25,0-.48.3-.71.46Zm39.41-85.95a5,5,0,0,0-.08-1.16,86.2,86.2,0,0,0-3-8.87,33.84,33.84,0,0,0-15.53-16.5,35.54,35.54,0,0,0-13.15-4,34.09,34.09,0,0,0-13.07,1.11,40.81,40.81,0,0,0-19.87,12.94,50.28,50.28,0,0,0-8.08,13c-.47,1.07-.82,2.2-1.27,3.43Z"></path><path d="M744,156.23c-.27-.16-.53-.44-.81-.47a46.48,46.48,0,0,1-25.25-9.63,54.59,54.59,0,0,1-13.82-16,68.1,68.1,0,0,1-8.21-22.56,81.44,81.44,0,0,1-.93-8.7c-.57-8.2,1-16.09,3.7-23.79A63,63,0,0,1,709,56.44,52.52,52.52,0,0,1,726.67,42a46.4,46.4,0,0,1,16.53-4.78,51.6,51.6,0,0,1,5.69-.37,45.62,45.62,0,0,1,17.68,4,45.1,45.1,0,0,1,10.23,6.23,42.7,42.7,0,0,1,10.11,11.67,41.52,41.52,0,0,1,5,14,17.35,17.35,0,0,1,.13,1.88h-1.42q-40.53,0-81.06,0A1.62,1.62,0,0,0,707.63,76a56.16,56.16,0,0,0-2.4,12.29c-.27,4.29-.66,8.59-.57,12.87a68.72,68.72,0,0,0,5.72,27.26,43.67,43.67,0,0,0,10.54,14.74,38.16,38.16,0,0,0,17.69,8.89,49.93,49.93,0,0,0,13.57,1,42,42,0,0,0,13-3,52.85,52.85,0,0,0,12.46-7.2,79.31,79.31,0,0,0,10.22-9.59c0,1.59,0,3,0,4.5,0,.23-.24.5-.43.69-5.3,5.29-10.94,10.14-17.82,13.33a40.82,40.82,0,0,1-13.57,3.7c-.94.09-1.9.12-2.84.24-.25,0-.47.3-.7.46ZM709,70.28h74.22a10.31,10.31,0,0,0-.11-1.71c-.29-1.23-.62-2.45-1-3.66a35.66,35.66,0,0,0-40-25,38,38,0,0,0-19.24,9.25,47.37,47.37,0,0,0-13.09,18.79C709.5,68.65,709.27,69.41,709,70.28Z"></path><path d="M450.62,81.07c.52-.55,1.08-1.06,1.55-1.65q6.4-8.16,12.77-16.33t12.77-16.34c4.44-5.66,8.91-11.31,13.35-17,4.27-5.44,8.51-10.89,12.77-16.33Q508.74,7.19,513.69,1a1.46,1.46,0,0,1,.95-.46c1.09-.06,2.19,0,3.54,0-1,1.29-1.84,2.45-2.72,3.59q-5.46,7.15-10.94,14.3C501,23,497.37,27.66,493.8,32.31L482.86,46.6,468.6,65.12l-9.24,12c-.39.51-.61,1,0,1.56,1,1,1.85,2.12,2.79,3.16l10,11.05,4.33,4.77,10.15,11.19c1.78,2,3.61,3.86,5.39,5.82,3,3.34,6,6.71,9,10.06,1.46,1.62,2.95,3.22,4.41,4.84,3.36,3.7,6.71,7.42,10.08,11.12,1.71,1.87,3.45,3.71,5.16,5.59,2.46,2.71,4.9,5.43,7.47,8.29-.46,0-.75.07-1,.07-3.08,0-6.17,0-9.25,0a2.42,2.42,0,0,1-2-.93c-2.38-2.69-4.78-5.35-7.17-8-2.79-3.12-5.56-6.26-8.35-9.38-1.38-1.55-2.79-3.08-4.18-4.62l-9.4-10.44c-1.51-1.67-3.05-3.32-4.56-5-3.17-3.5-6.31-7-9.48-10.51-1.56-1.72-3.14-3.43-4.71-5.14q-5.19-5.72-10.37-11.42-3.24-3.56-6.51-7.08c-.16-.17-.45-.21-.86-.39v71.51c0,1.39,0,1.39-1.36,1.39-1.74,0-3.47,0-5.21,0-.67,0-1-.19-.93-.9,0-.21,0-.43,0-.64V2a3.72,3.72,0,0,1,0-1.16c.12-.3.47-.73.73-.73,2-.07,4-.07,5.95,0,.27,0,.62.41.76.71a2.82,2.82,0,0,1,0,1.05V80.82Z"></path><path d="M615.24,50.92a11.43,11.43,0,0,0,1.48-1.28,33.23,33.23,0,0,1,8.56-7.11,36.62,36.62,0,0,1,15.84-5.08,83.1,83.1,0,0,1,10.33-.59c7.74.21,15.26,1.57,22.18,5.27a24.66,24.66,0,0,1,10.83,10.72,21.35,21.35,0,0,1,2.28,8.07c.16,2.14.22,4.3.22,6.45q0,42.33,0,84.68v1.47h-7.85c0-.46-.07-.94-.07-1.42V60c0-4.35-1.88-8-4.57-11.18-4.19-5-9.93-7.27-16.15-8.29a55.72,55.72,0,0,0-10.62-.82,40.12,40.12,0,0,0-24.32,8.61,30.12,30.12,0,0,0-7.68,8.76,5.77,5.77,0,0,0-.75,2.67q0,46.11,0,92.22v1.54a6.38,6.38,0,0,1-.75.12c-2.16,0-4.33,0-6.48,0-.71,0-1-.24-.91-.92a4.56,4.56,0,0,0,0-.64V41.71c0-1.5,0-1.5,1.48-1.5,1.84,0,3.68,0,5.52,0,.86,0,1.17.21,1.15,1.12-.05,2.76,0,5.52,0,8.28v1.13Z"></path><path d="M379.69,153.57H372v-1.45q0-45.84,0-91.69a17.73,17.73,0,0,0-4.23-11.12c-4-5.05-9.51-7.44-15.63-8.59a69.39,69.39,0,0,0-8.28-.89,40,40,0,0,0-25.21,6.77,33,33,0,0,0-9.93,10.17,5.45,5.45,0,0,0-.85,3q0,46.17,0,92.33c0,1.74.13,1.54-1.53,1.54h-6.6v-1.23q0-55.45,0-110.9c0-1,.27-1.34,1.3-1.3,1.94.08,3.89.05,5.84,0,.78,0,1.05.22,1,1,0,2.79,0,5.59,0,8.38V51a4,4,0,0,0,1-.53,36.16,36.16,0,0,1,23.43-12.78c2.9-.35,5.83-.48,8.75-.67a50.92,50.92,0,0,1,19.64,2.62,30,30,0,0,1,13.08,8.06,22.4,22.4,0,0,1,5.74,12.21,37.29,37.29,0,0,1,.25,5q0,43.56,0,87.13Z"></path><path d="M587.15,88.88c.05-.52.09-.76.09-1,0-9,.22-18-.09-27.06-.28-8.18-4.61-14.34-12.34-17.58a30.14,30.14,0,0,0-10.23-2.35,92.77,92.77,0,0,0-9.43-.15,46.48,46.48,0,0,0-15.51,3.73c-3.21,1.35-6.37,2.82-9.55,4.23-.16.07-.33.11-.66.22,0-1.16,0-2.23,0-3.3,0-.25.4-.54.68-.7a61.15,61.15,0,0,1,19.55-7.06,50.59,50.59,0,0,1,12.22-.81c8,.52,15.58,2.6,22.34,7.14a26.09,26.09,0,0,1,9,10,19.18,19.18,0,0,1,2.09,8.74q0,44.73,0,89.45v1.29h-6.22c-1.91,0-1.91,0-1.91-1.9l0-7.33a2.49,2.49,0,0,0-.15-.44,11,11,0,0,0-1.58,1,40,40,0,0,1-14.64,8.15,45.75,45.75,0,0,1-10.33,2,37.85,37.85,0,0,1-21.84-4.76,38.55,38.55,0,0,1-10.77-8.72,42.35,42.35,0,0,1-6.19-9.38,38.54,38.54,0,0,1-3.8-14.69,39.3,39.3,0,0,1,4.1-20.1A35.73,35.73,0,0,1,532.1,85.3a40.54,40.54,0,0,1,17.63-7.89,41.83,41.83,0,0,1,20,1,37.92,37.92,0,0,1,13.11,6.35A42.1,42.1,0,0,1,586,88C586.34,88.25,586.68,88.5,587.15,88.88Zm.28,28.31c0-6.9,0-13.79,0-20.69a7.29,7.29,0,0,0-.34-2.17c-1.62-4.93-5.17-8.21-9.51-10.68a38.12,38.12,0,0,0-15.35-4.57,36,36,0,0,0-13,.81,24.73,24.73,0,0,0-13.29,8.27,42.52,42.52,0,0,0-4.72,7c-3.57,7-4.67,14.54-4.85,22.26a51.16,51.16,0,0,0,.38,5.79,36.5,36.5,0,0,0,5.07,15.92,26,26,0,0,0,9.83,9.49c7.25,3.93,15,4,22.86,2.83a35,35,0,0,0,12.16-4.33,57.53,57.53,0,0,0,10.06-7.42,2.25,2.25,0,0,0,.74-1.87C587.42,131,587.43,124.09,587.43,117.19Z"></path><path d="M155.07,153.62c-2.6,0-5,0-7.47,0-.73,0-.67-.47-.67-.93v-8.95c-.81.57-1.4.9-1.9,1.34a38.59,38.59,0,0,1-11.9,7.07,45.72,45.72,0,0,1-13.33,3,38.26,38.26,0,0,1-22.7-5.53A37.33,37.33,0,0,1,89,143.13a39.91,39.91,0,0,1-10.9-21.7,39.27,39.27,0,0,1,3.52-23.64A36,36,0,0,1,95.13,82.94a41.73,41.73,0,0,1,16.25-5.84c9.14-1.34,17.73.46,26,4.37a29.05,29.05,0,0,1,7.09,4.9c.56.51,1,1.19,1.5,1.76a8.82,8.82,0,0,0,1,.77V87.47c0-8.63.07-17.27,0-25.9A19.24,19.24,0,0,0,140,46.5a24.63,24.63,0,0,0-10.84-4.94,52.29,52.29,0,0,0-14.66-.82,48.32,48.32,0,0,0-16.28,4.15c-3,1.28-6,2.64-9.14,4,0-1.2,0-2.3,0-3.4,0-.2.34-.43.57-.56a61.72,61.72,0,0,1,19.84-7.16,52.24,52.24,0,0,1,12.22-.77A46.54,46.54,0,0,1,138.21,41a32.92,32.92,0,0,1,11.07,7.76,20.26,20.26,0,0,1,5.79,14v90.89ZM147.12,117q0-10.35,0-20.69A6.13,6.13,0,0,0,147,95,15.17,15.17,0,0,0,143,88a23.71,23.71,0,0,0-7.9-5.51,41.24,41.24,0,0,0-23.21-3.21A26.23,26.23,0,0,0,93.35,91c-4.63,6.79-6.57,14.48-7.09,22.54a51.5,51.5,0,0,0,.78,14,33.38,33.38,0,0,0,7.09,15.31A26.26,26.26,0,0,0,113.29,152a60.92,60.92,0,0,0,9.82-.37,32.52,32.52,0,0,0,14.45-5.22c2.76-1.79,5.36-3.84,8-5.85a3.35,3.35,0,0,0,1.64-2.86C147.06,130.79,147.12,123.89,147.12,117Z"></path><path d="M176.74,153.62c-2.61,0-5.05,0-7.49,0-.22,0-.51-.36-.61-.61a2.73,2.73,0,0,1,0-.95V41.67c0-1.46,0-1.46,1.42-1.46h6.66c0,.5.05.87.05,1.25,0,2.54,0,5.09,0,7.64a2.63,2.63,0,0,0,.27.82,3.17,3.17,0,0,0,.57-.59c3.18-5.84,8.16-9.35,14.42-11.24,4.2-1.26,8.5-1.17,13-1.05,0,1.06,0,2.11,0,3.15,0,.18-.57.48-.85.45a30,30,0,0,0-11.38,1.11,19.89,19.89,0,0,0-8.26,4.7A26,26,0,0,0,177,58.15a7.25,7.25,0,0,0-.28,2q0,46,0,91.9Z"></path></svg>