<svg width="21px" height="21px" viewBox="0 0 21 21" version="1.1" xmlns="http://www.w3.org/2000/svg" xmlns:xlink="http://www.w3.org/1999/xlink">
                        <title>Phone</title>
                        <g id="Comps" stroke="none" stroke-width="1" fill="none" fill-rule="evenodd">
                            <g id="Desktop@2x" transform="translate(-109.000000, -78.000000)" fill-rule="nonzero" stroke="#464643">
                                <g id="CS" transform="translate(25.000000, 79.000000)">
                                    <path d="M103.30978,0.913272631 L99.4504832,0.0226664413 C99.0311558,-0.0738158959 98.6006958,0.145124792 98.4299961,0.538475859 L96.6487824,4.69463808 C96.4929262,5.05830227 96.5968303,5.48505107 96.9048318,5.73367863 L99.1536142,7.57426476 C97.8177039,10.4204937 95.4835717,12.7880218 92.5779667,14.1499071 L90.7373792,11.9011265 C90.4850406,11.5931252 90.0620023,11.4892211 89.6983378,11.6450772 L85.5421724,13.4262896 C85.1451101,13.6007 84.9261693,14.0311596 85.0226517,14.4504867 L85.9132586,18.3097802 C86.0060301,18.710553 86.3622729,19 86.7816003,19 C96.2851179,19 104,11.2999673 104,1.78161367 C104,1.36599744 103.714264,1.00604411 103.30978,0.913272631 Z" id="Phone"></path>
                                </g>
                            </g>
                        </g>
                    </svg>